<svg width="17" height="17" viewBox="0 0 17 17" fill="none" xmlns="http://www.w3.org/2000/svg">
<path d="M13.5368 0.989911C13.6939 0.823894 13.8826 0.691042 14.0918 0.599208C14.3011 0.507374 14.5266 0.458421 14.7551 0.455243C14.9836 0.452066 15.2104 0.494728 15.4222 0.580707C15.6339 0.666687 15.8262 0.79424 15.9878 0.955826C16.1494 1.11741 16.277 1.30975 16.3629 1.52148C16.4489 1.7332 16.4916 1.96002 16.4884 2.18851C16.4852 2.41701 16.4363 2.64255 16.3444 2.8518C16.2526 3.06105 16.1197 3.24977 15.9537 3.4068L10.9444 8.4161C10.9378 8.42272 10.9325 8.43058 10.9289 8.43924C10.9253 8.44789 10.9235 8.45717 10.9235 8.46654C10.9235 8.47591 10.9253 8.48518 10.9289 8.49384C10.9325 8.50249 10.9378 8.51035 10.9444 8.51697L15.9537 13.5263C16.1146 13.6845 16.2426 13.8731 16.3303 14.0811C16.4179 14.289 16.4635 14.5123 16.4645 14.738C16.4654 14.9637 16.4217 15.1873 16.3358 15.396C16.2499 15.6047 16.1235 15.7943 15.9639 15.9539C15.8043 16.1135 15.6147 16.2399 15.4061 16.3259C15.1974 16.4119 14.9738 16.4557 14.7481 16.4548C14.5224 16.4539 14.2991 16.4083 14.0911 16.3207C13.8832 16.2331 13.6946 16.1052 13.5363 15.9443L8.52697 10.935C8.52035 10.9284 8.51249 10.9231 8.50384 10.9195C8.49518 10.9159 8.4859 10.9141 8.47653 10.9141C8.46716 10.9141 8.45789 10.9159 8.44923 10.9195C8.44058 10.9231 8.43272 10.9284 8.4261 10.935L3.4168 15.9443C3.25854 16.1052 3.06998 16.2332 2.86202 16.3208C2.65405 16.4085 2.43079 16.4541 2.2051 16.4551C1.97942 16.456 1.75578 16.4123 1.54709 16.3263C1.33839 16.2404 1.14877 16.114 0.989171 15.9545C0.829568 15.7949 0.703136 15.6053 0.617169 15.3966C0.531203 15.188 0.487402 14.9643 0.488295 14.7387C0.489187 14.513 0.534754 14.2897 0.622368 14.0817C0.709982 13.8737 0.837909 13.6851 0.998769 13.5268L6.00807 8.51754C6.01471 8.51092 6.01997 8.50306 6.02356 8.49441C6.02715 8.48576 6.029 8.47648 6.029 8.46711C6.029 8.45774 6.02715 8.44846 6.02356 8.43981C6.01997 8.43115 6.01471 8.42329 6.00807 8.41667L0.998769 3.40737C0.682421 3.0859 0.505914 2.65245 0.507698 2.20144C0.509481 1.75042 0.689409 1.31838 1.00829 0.999428C1.32717 0.680473 1.75917 0.500443 2.21018 0.498553C2.6612 0.496664 3.09469 0.673068 3.41623 0.989341L8.42553 5.99864C8.43215 6.00528 8.44001 6.01054 8.44866 6.01413C8.45732 6.01772 8.46659 6.01957 8.47596 6.01957C8.48533 6.01957 8.49461 6.01772 8.50327 6.01413C8.51192 6.01054 8.51978 6.00528 8.5264 5.99864L13.5368 0.989911Z" fill="white" fill-opacity="0.7"/>
</svg>
