<svg width="20" height="20" viewBox="0 0 20 20" fill="none" xmlns="http://www.w3.org/2000/svg">
<path d="M16.5793 0.944948C16.2042 0.570006 15.6956 0.359375 15.1653 0.359375C14.6349 0.359375 14.1263 0.570006 13.7512 0.944948L12.1063 2.59095L17.4093 7.89395L19.0543 6.24995C19.2401 6.06422 19.3874 5.84371 19.488 5.601C19.5886 5.3583 19.6403 5.09816 19.6403 4.83545C19.6403 4.57274 19.5886 4.3126 19.488 4.06989C19.3874 3.82719 19.2401 3.60668 19.0543 3.42095L16.5793 0.944948ZM15.9953 9.30795L10.6922 4.00495L1.85725 12.8399L0.78125 19.2199L7.16125 18.1429L15.9953 9.30795Z" fill="#ffffff"/>
</svg>
